<svg id="PayPal.svg" xmlns="http://www.w3.org/2000/svg" width="128" height="80" viewBox="0 0 128 80">
  <defs>
    <style>
      .cls-1 {
        fill: #fff;
        stroke: #d9d9d9;
        stroke-linejoin: round;
        stroke-width: 1px;
      }

      .cls-2 {
        fill: #003087;
      }

      .cls-2, .cls-3 {
        fill-rule: evenodd;
      }

      .cls-3 {
        fill: #009cde;
      }
    </style>
  </defs>
  <rect id="Rounded_Rectangle_1_copy_6" data-name="Rounded Rectangle 1 copy 6" class="cls-1" width="128" height="80" rx="6" ry="6"/>
  <path class="cls-2" d="M44.751,31.87a23.861,23.861,0,0,0-5.571.911l-0.437,3.584a14.562,14.562,0,0,1,4.751-1.024c1.856-.058,2.949.342,2.621,1.934-5.515,0-9.229,1.137-9.994,4.721-1.093,6.144,5.625,5.974,8.245,3.3L44.04,46.774h4.969l2.13-9.784C52.013,32.836,48.191,31.814,44.751,31.87Zm0.382,10.011a2.523,2.523,0,0,1-2.621,1.936A1.318,1.318,0,0,1,41.2,41.77c0.546-.967,2.074-1.2,2.949-1.2h1.256A11.373,11.373,0,0,0,45.133,41.881ZM53.3,32.139h4.969l0.8,8.717,4.863-8.717h5.127L57.258,53H51.7l3.633-6.132L53.3,32.141v0ZM32.392,28.06H23.117l-4.11,18.716h5.445l1.333-6.2h3.888a7.571,7.571,0,0,0,7.665-6.144c0.945-4.381-2.222-6.372-4.944-6.372h0Zm-0.166,6.37a3.388,3.388,0,0,1-3.11,2.56H26.561l1.167-5.12h2.666A1.9,1.9,0,0,1,32.226,34.43Z"/>
  <path id="Shape_10_copy" data-name="Shape 10 copy" class="cls-3" d="M93.2,31.87a25.5,25.5,0,0,0-5.694.911l-0.444,3.584a15.684,15.684,0,0,1,4.865-1.024c1.879-.057,2.984.342,2.6,1.934-5.583,0-9.343,1.137-10.116,4.721-1.106,6.144,5.7,5.974,8.4,3.3l-0.333,1.479h4.976l2.157-9.784c0.883-4.154-2.932-5.176-6.413-5.12h0Zm0.331,10.011a2.489,2.489,0,0,1-2.6,1.936,1.342,1.342,0,0,1-1.382-2.048c0.555-.967,2.1-1.2,3.041-1.2h1.217c-0.111.455-.166,0.854-0.277,1.308h0ZM103.873,28L99.757,46.774h5.054L108.978,28h-5.1Zm-23.219.058H71.4L67.3,46.776h5.374l1.385-6.2h3.823a7.574,7.574,0,0,0,7.7-6.144c0.941-4.381-2.273-6.372-4.932-6.372h0ZM80.49,34.43a3.448,3.448,0,0,1-3.16,2.56H74.836l1.11-5.12h2.659A1.93,1.93,0,0,1,80.49,34.43Z"/>
</svg>
